<mxfile host="app.diagrams.net" modified="2021-07-15T08:05:51.985Z" agent="5.0 (Linux; Android 10; HLK-AL10; HMSCore 6.0.0.305) AppleWebKit/537.36 (KHTML, like Gecko) Chrome/88.0.4324.93 HuaweiBrowser/11.1.2.301 Mobile Safari/537.36" etag="y84Z54UHT57uCBF61c6a" version="14.8.6" type="github">
  <diagram id="xJFOTRZa5M6v8Rchno0L" name="Page-1">
    <mxGraphModel dx="466" dy="707" grid="1" gridSize="10" guides="1" tooltips="1" connect="1" arrows="1" fold="1" page="1" pageScale="1" pageWidth="827" pageHeight="1169" math="0" shadow="0">
      <root>
        <mxCell id="0" />
        <mxCell id="1" parent="0" />
        <mxCell id="h3r7cp-1G0PMbtlgpv-B-1" value="" style="ellipse;whiteSpace=wrap;html=1;aspect=fixed;" vertex="1" parent="1">
          <mxGeometry x="160" y="240" width="80" height="80" as="geometry" />
        </mxCell>
        <mxCell id="h3r7cp-1G0PMbtlgpv-B-3" value="" style="shape=tape;whiteSpace=wrap;html=1;" vertex="1" parent="1">
          <mxGeometry x="430" y="410" width="230" height="190" as="geometry" />
        </mxCell>
      </root>
    </mxGraphModel>
  </diagram>
</mxfile>
